<mxfile host="app.diagrams.net" modified="2024-02-06T02:33:39.389Z" agent="Mozilla/5.0 (Windows NT 10.0; Win64; x64) AppleWebKit/537.36 (KHTML, like Gecko) Chrome/121.0.0.0 Safari/537.36" etag="R0eRJssHa3WYSuK_1fuy" version="23.1.1" type="github">
  <diagram name="Page-1" id="6m4OFMTVXWtVEl-k-A-J">
    <mxGraphModel dx="1434" dy="772" grid="1" gridSize="10" guides="1" tooltips="1" connect="1" arrows="1" fold="1" page="1" pageScale="1" pageWidth="850" pageHeight="1100" math="0" shadow="0">
      <root>
        <mxCell id="0" />
        <mxCell id="1" parent="0" />
        <mxCell id="0nX5LgNFBzjrrUmNtYMR-1" value="&lt;font style=&quot;font-size: 20px;&quot;&gt;Alur perpustakaan digital&lt;/font&gt;" style="rounded=0;whiteSpace=wrap;html=1;" vertex="1" parent="1">
          <mxGeometry x="160" y="200" width="520" height="120" as="geometry" />
        </mxCell>
        <mxCell id="0nX5LgNFBzjrrUmNtYMR-2" value="" style="rounded=0;whiteSpace=wrap;html=1;" vertex="1" parent="1">
          <mxGeometry x="160" y="320" width="520" height="400" as="geometry" />
        </mxCell>
        <mxCell id="0nX5LgNFBzjrrUmNtYMR-11" style="edgeStyle=orthogonalEdgeStyle;rounded=0;orthogonalLoop=1;jettySize=auto;html=1;exitX=1;exitY=0.5;exitDx=0;exitDy=0;entryX=0;entryY=0.5;entryDx=0;entryDy=0;" edge="1" parent="1" source="0nX5LgNFBzjrrUmNtYMR-4" target="0nX5LgNFBzjrrUmNtYMR-5">
          <mxGeometry relative="1" as="geometry" />
        </mxCell>
        <mxCell id="0nX5LgNFBzjrrUmNtYMR-4" value="Pengunjung" style="rounded=1;whiteSpace=wrap;html=1;" vertex="1" parent="1">
          <mxGeometry x="210" y="380" width="100" height="40" as="geometry" />
        </mxCell>
        <mxCell id="0nX5LgNFBzjrrUmNtYMR-12" style="edgeStyle=orthogonalEdgeStyle;rounded=0;orthogonalLoop=1;jettySize=auto;html=1;exitX=1;exitY=0.5;exitDx=0;exitDy=0;" edge="1" parent="1" source="0nX5LgNFBzjrrUmNtYMR-5" target="0nX5LgNFBzjrrUmNtYMR-6">
          <mxGeometry relative="1" as="geometry" />
        </mxCell>
        <mxCell id="0nX5LgNFBzjrrUmNtYMR-13" style="edgeStyle=orthogonalEdgeStyle;rounded=0;orthogonalLoop=1;jettySize=auto;html=1;exitX=0.5;exitY=1;exitDx=0;exitDy=0;entryX=0.5;entryY=0;entryDx=0;entryDy=0;" edge="1" parent="1" source="0nX5LgNFBzjrrUmNtYMR-5" target="0nX5LgNFBzjrrUmNtYMR-7">
          <mxGeometry relative="1" as="geometry" />
        </mxCell>
        <mxCell id="0nX5LgNFBzjrrUmNtYMR-5" value="Halaman web" style="rounded=1;whiteSpace=wrap;html=1;" vertex="1" parent="1">
          <mxGeometry x="341" y="380" width="100" height="40" as="geometry" />
        </mxCell>
        <mxCell id="0nX5LgNFBzjrrUmNtYMR-16" style="edgeStyle=orthogonalEdgeStyle;rounded=0;orthogonalLoop=1;jettySize=auto;html=1;exitX=0.5;exitY=1;exitDx=0;exitDy=0;" edge="1" parent="1" source="0nX5LgNFBzjrrUmNtYMR-6" target="0nX5LgNFBzjrrUmNtYMR-8">
          <mxGeometry relative="1" as="geometry" />
        </mxCell>
        <mxCell id="0nX5LgNFBzjrrUmNtYMR-6" value="Isi data kunjungan" style="rounded=1;whiteSpace=wrap;html=1;" vertex="1" parent="1">
          <mxGeometry x="470" y="380" width="100" height="40" as="geometry" />
        </mxCell>
        <mxCell id="0nX5LgNFBzjrrUmNtYMR-14" style="edgeStyle=orthogonalEdgeStyle;rounded=0;orthogonalLoop=1;jettySize=auto;html=1;exitX=0.5;exitY=1;exitDx=0;exitDy=0;entryX=0.5;entryY=0;entryDx=0;entryDy=0;" edge="1" parent="1" source="0nX5LgNFBzjrrUmNtYMR-7" target="0nX5LgNFBzjrrUmNtYMR-9">
          <mxGeometry relative="1" as="geometry" />
        </mxCell>
        <mxCell id="0nX5LgNFBzjrrUmNtYMR-15" style="edgeStyle=orthogonalEdgeStyle;rounded=0;orthogonalLoop=1;jettySize=auto;html=1;exitX=0.5;exitY=0;exitDx=0;exitDy=0;entryX=0.5;entryY=1;entryDx=0;entryDy=0;" edge="1" parent="1" source="0nX5LgNFBzjrrUmNtYMR-7" target="0nX5LgNFBzjrrUmNtYMR-5">
          <mxGeometry relative="1" as="geometry" />
        </mxCell>
        <mxCell id="0nX5LgNFBzjrrUmNtYMR-7" value="Mencari buku" style="rounded=1;whiteSpace=wrap;html=1;" vertex="1" parent="1">
          <mxGeometry x="341" y="450" width="100" height="40" as="geometry" />
        </mxCell>
        <mxCell id="0nX5LgNFBzjrrUmNtYMR-17" style="edgeStyle=orthogonalEdgeStyle;rounded=0;orthogonalLoop=1;jettySize=auto;html=1;exitX=0.5;exitY=1;exitDx=0;exitDy=0;entryX=0.5;entryY=0;entryDx=0;entryDy=0;" edge="1" parent="1" source="0nX5LgNFBzjrrUmNtYMR-8" target="0nX5LgNFBzjrrUmNtYMR-10">
          <mxGeometry relative="1" as="geometry" />
        </mxCell>
        <mxCell id="0nX5LgNFBzjrrUmNtYMR-8" value="Kirim" style="rounded=1;whiteSpace=wrap;html=1;" vertex="1" parent="1">
          <mxGeometry x="470" y="450" width="100" height="40" as="geometry" />
        </mxCell>
        <mxCell id="0nX5LgNFBzjrrUmNtYMR-9" value="Melihat detail buku" style="rounded=1;whiteSpace=wrap;html=1;" vertex="1" parent="1">
          <mxGeometry x="341" y="520" width="100" height="40" as="geometry" />
        </mxCell>
        <mxCell id="0nX5LgNFBzjrrUmNtYMR-10" value="&lt;font style=&quot;&quot;&gt;&lt;span style=&quot;color: rgb(0, 0, 0); font-family: Helvetica; font-style: normal; font-variant-ligatures: normal; font-variant-caps: normal; font-weight: 400; letter-spacing: normal; orphans: 2; text-align: center; text-indent: 0px; text-transform: none; widows: 2; word-spacing: 0px; -webkit-text-stroke-width: 0px; background-color: rgb(251, 251, 251); text-decoration-thickness: initial; text-decoration-style: initial; text-decoration-color: initial; float: none; display: inline !important;&quot;&gt;&lt;font style=&quot;font-size: 12px;&quot;&gt;Melihat riwayat kunjungan&lt;/font&gt;&lt;/span&gt;&lt;br&gt;&lt;/font&gt;" style="rounded=1;whiteSpace=wrap;html=1;" vertex="1" parent="1">
          <mxGeometry x="470" y="520" width="100" height="40" as="geometry" />
        </mxCell>
        <mxCell id="0nX5LgNFBzjrrUmNtYMR-18" value="" style="edgeStyle=elbowEdgeStyle;elbow=horizontal;endArrow=classic;html=1;curved=0;rounded=0;endSize=8;startSize=8;entryX=1;entryY=0.5;entryDx=0;entryDy=0;exitX=1;exitY=0.5;exitDx=0;exitDy=0;" edge="1" parent="1" source="0nX5LgNFBzjrrUmNtYMR-10" target="0nX5LgNFBzjrrUmNtYMR-6">
          <mxGeometry width="50" height="50" relative="1" as="geometry">
            <mxPoint x="590" y="490" as="sourcePoint" />
            <mxPoint x="640" y="440" as="targetPoint" />
            <Array as="points">
              <mxPoint x="600" y="480" />
            </Array>
          </mxGeometry>
        </mxCell>
      </root>
    </mxGraphModel>
  </diagram>
</mxfile>
